<svg xmlns="http://www.w3.org/2000/svg" xmlns:xlink="http://www.w3.org/1999/xlink" width="64" height="64" viewBox="0 0 64 64"><defs><path id="a" d="M.06 64V.04H64V64z"/></defs><g fill="none" fill-rule="evenodd"><mask id="b" fill="#fff"><use xlink:href="#a"/></mask><path fill="#B85756" d="M64 32c0 17.673-14.327 32-32 32C14.327 64 0 49.673 0 32 0 14.327 14.327 0 32 0c17.673 0 32 14.327 32 32" mask="url(#b)"/><path fill="#974D4C" d="M49 26v-2a2 2 0 002-2v2a2 2 0 01-2 2M49 35v-2a2 2 0 002-2v2a2 2 0 01-2 2M49 44v-2a2 2 0 002-2v2a2 2 0 01-2 2"/><path fill="#76ABC4" d="M49 24a2 2 0 0 1-2-2v-3a2 2 0 1 1 4 0v3a2 2 0 0 1-2 2"/><path fill="#FFFFFE" d="M49 33a2 2 0 0 1-2-2v-3a2 2 0 1 1 4 0v3a2 2 0 0 1-2 2"/><path fill="#73BBA3" d="M49 42a2 2 0 0 1-2-2v-3a2 2 0 1 1 4 0v3a2 2 0 0 1-2 2"/><path fill="#974D4C" d="M45 54H21a4 4 0 0 1-3.936-3.283A3.991 3.991 0 0 0 20 52h24a4 4 0 0 0 4-4v-4.268c.294.171.636.268 1 .268v6a4 4 0 0 1-4 4m3-18.732v-.536c.294.171.636.268 1 .268-.364 0-.706.097-1 .268m0-9v-.536c.294.171.636.268 1 .268-.364 0-.706.097-1 .268m0-9V16c0-.245-.022-.484-.064-.717a3.99 3.99 0 0 1 .939 1.721 1.976 1.976 0 0 0-.875.264"/><path fill="#7D4241" d="M49 26c-.364 0-.706-.097-1-.268v-2c.294.171.636.268 1 .268v2M49 35c-.364 0-.706-.097-1-.268v-2c.294.171.636.268 1 .268v2M49 44c-.364 0-.706-.097-1-.268v-2c.294.171.636.268 1 .268v2"/><path fill="#638DA0" d="M49 24c-.364 0-.706-.097-1-.268v-6.464c.26-.151.558-.245.875-.264.082.318.125.652.125.996v6"/><path fill="#CFCDC8" d="M49 33c-.364 0-.706-.097-1-.268v-6.464A1.983 1.983 0 0 1 49 26v7"/><path fill="#629986" d="M49 42c-.364 0-.706-.097-1-.268v-6.464A1.983 1.983 0 0 1 49 35v7"/><path fill="#D5915B" d="M48 48a4 4 0 0 1-4 4H20a4 4 0 0 1-4-4V16a4 4 0 0 1 4-4h24a4 4 0 0 1 4 4v32"/><path fill="#4C5665" d="M22 52h3V12h-3z"/><path fill="#974D4C" d="M16 24h-1a2 2 0 1 1 0-4h1v4"/><path fill="#AE7A51" d="M18 24h-2v-4h2a2 2 0 1 1 0 4"/><path fill="#974D4C" d="M16 32h-1a2 2 0 1 1 0-4h1v4"/><path fill="#AE7A51" d="M18 32h-2v-4h2a2 2 0 0 1 0 4"/><path fill="#974D4C" d="M16 40h-1a2 2 0 0 1 0-4h1v4"/><path fill="#AE7A51" d="M18 40h-2v-4h2a2 2 0 0 1 0 4"/><path fill="#974D4C" d="M16 48h-1a2 2 0 0 1 0-4h1v4"/><path fill="#AE7A51" d="M18 48h-2v-4h2a2 2 0 1 1 0 4"/><path fill="#DEDECA" d="M20 20a2 2 0 01-2 2h-3a2 2 0 110-4h3a2 2 0 012 2M20 28a2 2 0 01-2 2h-3a2 2 0 110-4h3a2 2 0 012 2M20 36a2 2 0 01-2 2h-3a2 2 0 110-4h3a2 2 0 012 2M20 44a2 2 0 01-2 2h-3a2 2 0 110-4h3a2 2 0 012 2"/><path fill="#F0CB83" d="M40 27a4 4 0 11-8 0 4 4 0 018 0M42 39.259c0 3.011-2.686 2.726-6 2.726s-6 .285-6-2.726c0-3.01 2.686-7.267 6-7.267s6 4.257 6 7.267"/></g></svg>