<svg id="svg" version="1.1" xmlns="http://www.w3.org/2000/svg" xmlns:xlink="http://www.w3.org/1999/xlink" width="400" height="400" viewBox="0, 0, 400,400"><g id="svgg"><path id="path0" d="M174.609 1.194 C 8.750 22.804,-59.514 227.069,60.256 343.370 C 173.155 452.998,362.812 395.808,395.987 242.132 C 424.984 107.811,310.727 -16.541,174.609 1.194 M211.864 93.322 C 231.814 97.550,249.626 112.778,256.860 131.790 C 266.605 157.403,258.867 184.594,232.335 217.969 C 226.762 224.979,201.335 250.781,200.000 250.781 C 198.669 250.781,173.249 224.992,167.658 217.969 C 145.349 189.949,135.917 164.620,139.835 143.258 C 146.010 109.586,179.396 86.440,211.864 93.322 M192.670 115.713 C 177.821 119.199,166.899 134.476,168.196 149.945 C 171.642 191.043,232.422 188.877,232.422 147.656 C 232.422 125.521,213.988 110.708,192.670 115.713 M174.124 256.714 C 180.522 262.638,180.531 262.896,174.350 263.595 C 156.265 265.641,137.644 274.899,140.580 280.384 C 148.391 294.981,207.008 301.039,242.158 290.883 C 273.360 281.868,265.083 269.686,223.132 262.881 L 220.091 262.388 223.913 258.476 C 231.781 250.421,233.259 250.219,248.173 255.172 C 304.421 273.848,265.556 312.183,193.543 309.057 C 124.091 306.042,102.002 268.856,160.352 253.179 C 168.235 251.061,167.935 250.984,174.124 256.714 " stroke="none" fill="#000000" fill-rule="evenodd"></path></g></svg>