<svg id="svg" version="1.1" xmlns="http://www.w3.org/2000/svg" xmlns:xlink="http://www.w3.org/1999/xlink" width="400" height="400" viewBox="0, 0, 400,400"><g id="svgg"><path id="path0" d="M174.219 1.228 C 8.929 22.429,-59.303 227.275,60.256 343.370 C 167.782 447.781,348.424 401.570,391.657 258.594 C 433.745 119.400,318.293 -17.252,174.219 1.228 M271.826 78.049 C 279.921 80.569,286.490 86.825,289.543 94.922 C 290.958 98.675,291.016 102.788,291.016 200.000 L 291.016 301.172 288.829 305.859 C 285.981 311.961,280.669 317.299,274.696 320.059 L 269.922 322.266 200.000 322.266 L 130.078 322.266 125.304 320.059 C 119.331 317.299,114.019 311.961,111.171 305.859 L 108.984 301.172 108.984 200.000 C 108.984 102.788,109.042 98.675,110.457 94.922 C 113.462 86.951,120.046 80.602,127.915 78.087 C 135.007 75.820,264.555 75.787,271.826 78.049 M136.250 100.313 L 133.594 102.969 133.611 188.789 C 133.630 282.979,133.307 276.397,138.035 278.815 C 140.552 280.102,259.300 280.044,262.131 278.754 C 266.604 276.716,266.406 280.895,266.406 188.242 L 266.406 102.969 263.750 100.313 L 261.094 97.656 200.000 97.656 L 138.906 97.656 136.250 100.313 M182.031 302.344 L 182.031 313.281 200.000 313.281 L 217.969 313.281 217.969 302.344 L 217.969 291.406 200.000 291.406 L 182.031 291.406 182.031 302.344 " stroke="none" fill="#000000" fill-rule="evenodd"></path></g></svg>